<svg xmlns="http://www.w3.org/2000/svg" xmlns:xlink="http://www.w3.org/1999/xlink" width="94" height="94" viewBox="0 0 94 94"><defs><filter id="a" x="0" y="0" width="94" height="94" filterUnits="userSpaceOnUse"><feOffset dy="3" input="SourceAlpha"/><feGaussianBlur stdDeviation="3" result="b"/><feFlood flood-opacity="0.161"/><feComposite operator="in" in2="b"/><feComposite in="SourceGraphic"/></filter></defs><g transform="translate(-880.722 -57.25)"><g transform="matrix(1, 0, 0, 1, 880.72, 57.25)" filter="url(#a)"><g transform="translate(9 6)" fill="#fff"><path d="M 37.99998474121094 70.99996948242188 C 33.54281234741211 70.99996948242188 29.22161293029785 70.12814331054688 25.15642738342285 68.40872955322266 C 21.22741317749023 66.74688720703125 17.6977424621582 64.36676788330078 14.66547012329102 61.33449935913086 C 11.63319873809814 58.30222702026367 9.253085136413574 54.77255630493164 7.591241836547852 50.84354019165039 C 5.871827602386475 46.77835464477539 4.999999046325684 42.45715713500977 4.999999046325684 37.99998474121094 C 4.999999046325684 33.54281234741211 5.871827602386475 29.22161293029785 7.591241836547852 25.15642738342285 C 9.253085136413574 21.22741317749023 11.63319873809814 17.6977424621582 14.66547012329102 14.66547012329102 C 17.6977424621582 11.63319873809814 21.22741317749023 9.253085136413574 25.15642738342285 7.591241836547852 C 29.22161293029785 5.871827602386475 33.54281234741211 4.999999046325684 37.99998474121094 4.999999046325684 C 42.45715713500977 4.999999046325684 46.77835464477539 5.871827602386475 50.84354019165039 7.591241836547852 C 54.77255630493164 9.253085136413574 58.30222702026367 11.63319873809814 61.33449935913086 14.66547012329102 C 64.36676788330078 17.6977424621582 66.74688720703125 21.22741317749023 68.40872955322266 25.15642738342285 C 70.12814331054688 29.22161293029785 70.99996948242188 33.54281234741211 70.99996948242188 37.99998474121094 C 70.99996948242188 42.45715713500977 70.12814331054688 46.77835464477539 68.40872955322266 50.84354019165039 C 66.74688720703125 54.77255630493164 64.36676788330078 58.30222702026367 61.33449935913086 61.33449935913086 C 58.30222702026367 64.36676788330078 54.77255630493164 66.74688720703125 50.84354019165039 68.40872955322266 C 46.77835464477539 70.12814331054688 42.45715713500977 70.99996948242188 37.99998474121094 70.99996948242188 Z" stroke="none"/><path d="M 37.99998474121094 10.00000762939453 C 22.56074523925781 10.00000762939453 10.00000762939453 22.56074523925781 10.00000762939453 37.99998474121094 C 10.00000762939453 53.43922424316406 22.56074523925781 65.99996185302734 37.99998474121094 65.99996185302734 C 53.43922424316406 65.99996185302734 65.99996185302734 53.43922424316406 65.99996185302734 37.99998474121094 C 65.99996185302734 22.56074523925781 53.43922424316406 10.00000762939453 37.99998474121094 10.00000762939453 M 37.99998474121094 7.62939453125e-06 C 58.98678588867188 7.62939453125e-06 75.99996185302734 17.01316452026367 75.99996185302734 37.99998474121094 C 75.99996185302734 58.98678588867188 58.98678588867188 75.99996185302734 37.99998474121094 75.99996185302734 C 17.01316452026367 75.99996185302734 7.62939453125e-06 58.98678588867188 7.62939453125e-06 37.99998474121094 C 7.62939453125e-06 17.01316452026367 17.01316452026367 7.62939453125e-06 37.99998474121094 7.62939453125e-06 Z" stroke="none" fill="#fff"/></g></g><path d="M19.053,34.293,16.58,32.041C7.8,24.078,2,18.825,2,12.379A9.288,9.288,0,0,1,11.379,3a10.212,10.212,0,0,1,7.674,3.564A10.212,10.212,0,0,1,26.727,3a9.288,9.288,0,0,1,9.379,9.379c0,6.446-5.8,11.7-14.58,19.679Z" transform="translate(908.669 82.743)" fill="#ee4f3f"/></g></svg>