<svg xmlns="http://www.w3.org/2000/svg" width="24" height="24" viewBox="0 0 24 24"><g transform="translate(0)"><path d="M3.08,0H20.92A3.007,3.007,0,0,1,24,3.08V20.92A3.007,3.007,0,0,1,20.92,24H3.08A3.007,3.007,0,0,1,0,20.92V3.08A3.007,3.007,0,0,1,3.08,0Zm14.4,2.667A1.083,1.083,0,0,0,16.4,3.747V6.333a1.083,1.083,0,0,0,1.08,1.081H20.2a1.084,1.084,0,0,0,1.081-1.081V3.747A1.083,1.083,0,0,0,20.2,2.667Zm3.8,7.483H19.175a7.02,7.02,0,0,1,.308,2.059,7.347,7.347,0,0,1-7.46,7.228,7.347,7.347,0,0,1-7.46-7.228,7.008,7.008,0,0,1,.308-2.059h-2.2V20.287a.957.957,0,0,0,.954.954H20.334a.957.957,0,0,0,.954-.954V10.15ZM12.023,7.277a4.747,4.747,0,0,0-4.82,4.67,4.747,4.747,0,0,0,4.82,4.67,4.747,4.747,0,0,0,4.82-4.67A4.747,4.747,0,0,0,12.023,7.277Z" fill="#111"/></g></svg>