<svg xmlns="http://www.w3.org/2000/svg" width="32" height="20.266" viewBox="0 0 32 20.266"><g transform="translate(0 -17.564)"><g transform="translate(0 17.564)"><path d="M12.922,26.624a3.445,3.445,0,0,0,3.03-3.776c0-3.551-2.479-5.284-5.619-5.284H0V37.409H10.332s6.307.2,6.307-5.857C16.64,31.552,16.915,26.624,12.922,26.624ZM4.552,21.092h5.78s1.4,0,1.4,2.065-.826,2.364-1.763,2.364H4.552Zm5.513,12.791H4.552v-5.3h5.78s2.093-.027,2.093,2.726C12.426,33.6,10.895,33.86,10.066,33.883Z" transform="translate(0 -17.564)" fill="#111"/><rect width="8.193" height="2.445" transform="translate(20.763 1.17)" fill="#111"/><path d="M59.749,32.682c-7.636,0-7.629,7.628-7.629,7.628S51.6,47.9,59.749,47.9c0,0,6.795.388,6.795-5.281H63.049s.117,2.136-3.184,2.136A3.23,3.23,0,0,1,56.372,41.3H66.66S67.785,32.682,59.749,32.682Zm3.106,5.969H56.332a3.551,3.551,0,0,1,3.494-3.061A2.955,2.955,0,0,1,62.855,38.651Z" transform="translate(-34.714 -27.64)" fill="#111"/></g></g></svg>